<svg xmlns="http://www.w3.org/2000/svg" viewBox="0 0 128 128"><circle cx="64" cy="64" r="60" fill="#142f2b"/><g fill-rule="evenodd"><path fill="#d8ff55" d="M45.8 31.56c1.63-.46 3.23-1.07 4.95-1.17 2.45-.23 4.88-1.2 7.35-.75 1.17.5 1.67 1.85 2.05 3 .65 1.31 1.02 2.74 1.74 4.02.13 1.11 1.15 1.78 2.24 1.65 1.7-.04 3.41-.1 5.1-.03 1.06.46.43 1.87-.35 2.32-1.24.81-2.8.74-4.17 1.22-1.4.14-2.9.42-4.26-.06-1.27-1.07-2.01-2.66-3.3-3.67-1.5-.56-3.12.09-4.68.08-.94-.16-1.34.82-.91 1.56 1.28 1.49 2.72 2.9 3.81 4.54 1.14 1.8.23 3.94.28 5.9-.25 2.83-.97 5.59-1.12 8.43-.21 1.68-2.08 2.65-3.65 2.4-1-1.09-.5-2.57-.53-3.89.16-3.02.19-6.05.56-9.05.04-1.4-.88-2.53-1.99-3.29-2.21-1.5-4.24-3.24-6.46-4.74-1.14-.84-2.34-2.1-1.93-3.65.36-2.21 2.35-3.71 4.34-4.45q.44-.21.93-.37M27.14 50.22c1.62-2.36 3.9-4.53 6.8-5.06a8.6 8.6 0 0 1 6.23.16c1.34.3 2.49 1.13 3.59 1.9a11.6 11.6 0 0 1 3.35 4.82c.53 1.9 1.01 3.9.4 5.85a10.5 10.5 0 0 1-2.14 4.65 10.5 10.5 0 0 1-5.67 3.75c-1.66.62-3.54.53-5.25.25-1.53-.5-3.1-.97-4.33-2.04-1.35-1.15-2.7-2.5-3.36-4.16a9.3 9.3 0 0 1-1-4.7 9 9 0 0 1 1.08-4.67q.12-.38.3-.75M74.7 65.35a14 14 0 0 1-4.42 1.38c-1.6.07-3.23.02-4.68-.73a10.2 10.2 0 0 1-6.08-5.38c-.77-1.35-.97-2.94-1.23-4.44-.14-1.65.5-3.22.89-4.8 1.04-2.09 2.5-4.1 4.66-5.13 1.22-.93 2.81-1.08 4.25-1.49a9.6 9.6 0 0 1 4.74.6c2.74.75 4.96 2.9 6.3 5.34a10 10 0 0 1 1.17 4.96 10 10 0 0 1-2.28 6.73 12 12 0 0 1-3.32 2.96M61.94 52.7a6.6 6.6 0 0 0-.17 5.48 7.3 7.3 0 0 0 3.41 4.39 7.3 7.3 0 0 0 4.16 1.13c3.35.15 6.43-2.34 7.58-5.38.71-2.51.48-5.45-1.3-7.48a7.7 7.7 0 0 0-3.73-2.7 5.4 5.4 0 0 0-3.96-.2c-.42.79.4 1.7.64 2.46.59 1.52 1.37 2.95 2 4.44.38.97-.17 2.4-1.37 2.27-1.23-.3-1.67-1.73-2.1-2.79-.62-1.03-.98-2.2-1.58-3.23-.13-.74-.62-1.72-1.53-1.28-1 .55-1.57 1.9-2.05 2.89M35.63 63.66c-2.89-.32-5.35-2.57-6.42-5.2-.86-2.6-.51-5.72 1.38-7.8a8 8 0 0 1 3.55-2.52 7.7 7.7 0 0 1 5.04-.1c1.52.7 3.06 1.5 4.03 2.94.63.7.86 1.68 1.25 2.53-.75.7-1.73.75-2.69.67-1.77.15-3.6-.27-5.33.18-1 .2-1.32 1.57-.73 2.34 1.2.9 2.91.4 4.34.53 1.23.1 2.54-.24 3.71.17 1.08.4.2 1.56-.05 2.27a7.6 7.6 0 0 1-3.92 3.4c-1.22.76-2.78.67-4.16.59m28.53-31.6c-1.66-.36-3.08-1.82-3.08-3.57-.2-1.9 1.33-3.62 3.04-4.17a4 4 0 1 1 .54 7.91z"/><path fill="#4c7bff" d="M66.13 93.94c.78-.27 2.12-.33 2.32.71.34.78-.14 1.91-1.03 2.05a10 10 0 0 0-3.74 2.25 17 17 0 0 1-4.5 1.98c-2.07.17-4.28.33-6.18-.65-1.35-.29-2.35-1.3-3.5-2-1.04-.79-2.16-1.52-3.5-1.65a9 9 0 0 0-5.3.54c-1.5.63-2.56 1.94-4 2.66-1.5.56-2.97 1.29-4.61 1.19a9 9 0 0 1-4.74-.77c-1.66-.4-2.85-1.73-4.3-2.56-.81-.54-2.04-1.23-1.62-2.38.38-1.21 1.96-1.02 2.82-.46 1.6 1.05 3.08 2.43 4.96 2.93a8.8 8.8 0 0 0 6.29-.76c1.3-.73 2.31-1.91 3.73-2.45 1.8-1.06 4-1.16 6.03-1.06 1.34.1 2.67.34 3.85 1.01 1.58.63 2.7 2.06 4.29 2.69 1.82 1.05 4.1.94 6.09.52a9 9 0 0 0 3.3-1.95c1-.81 2.18-1.33 3.34-1.84m-13-8.38a53 53 0 0 0-2.77-4 24 24 0 0 0-6.01-5.32c-1.4-1.14-3.08-1.85-4.65-2.7-1.09-.56-2.44-.64-3.44.17-.9.53-1.83 1-2.7 1.6-1.17.5-2.17 1.33-3.32 1.88-.72.49-1.82.72-1.9 1.74-.14.63.87.74 1.25 1.1 1.05.87 2.51.64 3.63.04.92-.38 1.86-.7 2.72-1.22.98-.38 2.13-.85 3.1-.18.85.41 1.69.9 2.39 1.53-.64 1.2-1.84 2.1-2.78 3.12l-7 6.99c-.52.32-1.03 1-1.7.61q-1.84-.4-3.48-1.32c-.98-.06-2.1 1.18-1.4 2.1.48.81 1.5 1.16 2.26 1.65 2.19.7 4.54.9 6.8.45q1.65-.16 2.99-1.1c1.55-.6 2.51-2.16 4.17-2.55 1.58-.89 3.52-.8 5.25-.48 1.07.5 2.26.8 3.13 1.64.97.9 2.2 1.41 3.32 2.08 2.3.7 4.8.9 7.15.33 1.36-.13 2.43-.98 3.62-1.55.84-.67 1.8-1.36 2.19-2.37-.1-.98-1.06-1.92-2.06-1.45-1.03.57-1.87 1.49-2.97 1.97-1.09.58-2.1-.28-3.02-.76-.98-.47-1.84-1.15-2.84-1.58a5 5 0 0 1-1.92-2.42m6.15-8.24c-.06 1.7-1.2 3.37-2.89 3.78-.93.47-2.03.52-2.96.03a3.8 3.8 0 0 1-2.15-1.85 3.6 3.6 0 0 1-.22-4.06c.82-1.55 2.55-2.7 4.32-2.52 1.14.29 2.32.7 3 1.72.7.74.87 1.92.9 2.9"/><path fill="#ef6b52" d="M77.9 74.73c5.94.5 11.91.5 17.87.67.86.11 1.73-.25 2.07-1.08.64-.92 0-2.1-.1-3.1-.16-1.52-.39-3.06-.4-4.6.44-1.28 1.73-2 2.57-3 .75-.7 1.43-1.55 2.24-2.14.96-.2 1.59.74 1.97 1.49l2.53 3.35c1.19.88 2.67.22 4 .15 1.54-.33 3.22-.26 4.66-.95a9 9 0 0 0 2.3-2.34c-.08-.94-1.26-.72-1.94-.77-1.68-.08-3.39.08-5.06-.07-1.45-.45-1.37-2.2-2.12-3.26-.55-1.36-1-2.82-1.9-4q-2.97-3.09-6.09-6.06a21 21 0 0 0-3.79-2.84c-.91-.7-2-1.16-3-1.71-1.69-.46-3.48-.14-5.22-.23-1.16.08-2.38-.17-3.5.15-1 .39-.58 1.67.07 2.17 1.01 1.07 2.5 1.15 3.86 1.39 1.16.31 2.36.47 3.53.74 1.1.57 1.64 1.83 2.4 2.76.38.7.97 1.32 1.3 2.02-.1 1.33-1.33 2.16-2.03 3.2a95 95 0 0 0-5.59 6.83c-.73.75-.44 1.88.04 2.68.17.74.54 1.5.47 2.25-.37 1.24-1.82 1.33-2.9 1.46-2.08.25-4.18.45-6.2.99-1.84.35-3.75.3-5.55.81-.58.55-1.25 1.38-.68 2.17.59 1.13 1.99.7 3.02.83zm33.66-25.23c-.44 1.22-1.71 1.84-2.87 2.2a3.9 3.9 0 0 1-4.2-2.4 3.2 3.2 0 0 1 .33-3.55c.5-1 1.58-1.51 2.62-1.8 1.94-.34 3.88 1.04 4.44 2.89.37.89.1 1.84-.32 2.66M77.9 87.42q1.63-1.48 3.24-3 1.72-1.66 3.45-3.3 1.39-1.34 2.77-2.7c.24-.14.26-.44.04-.61-.42-.33-1-.3-1.52-.36-1.44-.01-2.88-.13-4.32-.18-.5-.1-1 .06-1.43.34-.6.3-.91.95-1.32 1.45q-.73 1.04-1.5 2.02c-.55.78-1.17 1.5-1.7 2.3-.75 1.06-1.61 2.04-2.39 3.1-.45.58-.79 1.25-1.29 1.8q-.57.71-.9 1.54c-.04.34.42.33.66.38.83.14 1.67.08 2.5.06.53-.08.97-.41 1.4-.73.8-.66 1.54-1.4 2.3-2.1"/></g><circle cx="64" cy="64" r="59.25" fill="none" stroke="#49615d" stroke-width="1.5"/></svg>